<svg id="图层_1" data-name="图层 1" xmlns="http://www.w3.org/2000/svg" viewBox="0 0 28 20.5"><defs><style>.cls-1{fill:#f35f36;}</style></defs><title>商城ICON</title><path class="cls-1" d="M27.92986.60268a.48.48,0,0,0-.51425-.436H.58456a.47959.47959,0,0,0-.51407.436v1.3365a.37964.37964,0,0,0,.04559.17776.48786.48786,0,0,0,.38036.29414A2.06765,2.06765,0,0,1,1.648,3.02541c.05279.06806.10611.13612.16438.20589a1.49847,1.49847,0,0,1,.26535.84042A1.7976,1.7976,0,0,1,.49645,5.732a.44429.44429,0,0,0-.39818.49419.35651.35651,0,0,0-.0086.07078V8.09854A.384.384,0,0,0,.095,8.1429a.44775.44775,0,0,0,.4013.46966,1.798,1.798,0,0,1,1.58109,1.66065,1.798,1.798,0,0,1-1.58109,1.6603.45486.45486,0,0,0-.40507.44241l-.00171.01338v1.97638l.00123.00992a.45613.45613,0,0,0,.40538.43833,1.79767,1.79767,0,0,1,1.58109,1.66029A1.79876,1.79876,0,0,1,.49609,18.135a.45508.45508,0,0,0-.4052.44088.36849.36849,0,0,0-.01545.10115v1.17571a.39122.39122,0,0,0-.00531.04507.48.48,0,0,0,.51407.43557H27.41509a.4802.4802,0,0,0,.51425-.43557V18.54126a.39433.39433,0,0,0-.00549-.0473c-.00171-.0115-.00153-.02365-.00412-.035a.38646.38646,0,0,0-.02483-.07148l-.00294-.0079a.50222.50222,0,0,0-.38173-.26583,1.79543,1.79543,0,0,1-1.56894-1.65758,1.79835,1.79835,0,0,1,1.58127-1.6606.456.456,0,0,0,.40577-.43781l.00119-.01027V12.37079l-.00154-.01391a.45556.45556,0,0,0-.40524-.44206,1.79756,1.79756,0,0,1-1.58127-1.6603A1.799,1.799,0,0,1,27.52273,8.594a.444.444,0,0,0,.398-.49674.37656.37656,0,0,0,.00891-.07526V6.27829a.375.375,0,0,0-.00843-.07131.44413.44413,0,0,0-.39835-.49314A1.79819,1.79819,0,0,1,25.94164,4.0532,1.79785,1.79785,0,0,1,27.5229,2.39308a.44912.44912,0,0,0,.402-.46694.37172.37172,0,0,0,.005-.04217ZM17.993,9.26258v1.30051H14.81736v2.42322H17.993v1.317H14.81736V17.123H13.18348V14.30346H9.89084v-1.317h3.29264V10.56309H9.89084V9.26258H12.6999l-3.426-5.88476h1.84219q2.40066,4.38467,2.91759,5.55977h.03326a19.5776,19.5776,0,0,1,.9585-1.95053l1.95873-3.60925h1.742L15.267,9.26258Zm0,0"/></svg>