<svg id="图层_1" data-name="图层 1" xmlns="http://www.w3.org/2000/svg" viewBox="0 0 40 40"><defs><style>.cls-1{fill:none;stroke:#595757;stroke-linecap:round;stroke-miterlimit:10;stroke-width:1.5px;}.cls-2{font-size:14.16445px;fill:#595757;font-family:PingFangSC-Regular-GBpc-EUC-H, PingFang SC;}</style></defs><title>商城ICON</title><path class="cls-1" d="M5.369,29.40179H2.82354A1.82354,1.82354,0,0,1,1,27.57824V8.12711A1.82354,1.82354,0,0,1,2.82354,6.30356H21.36291a1.82354,1.82354,0,0,1,1.82354,1.82354V29.40179H13.95809"/><line class="cls-1" x1="26.74114" y1="29.40179" x2="23.18645" y2="29.40179"/><path class="cls-1" d="M23.51422,10.29256h8.506a1.37233,1.37233,0,0,1,1.06628.50842l5.60743,6.92089A1.37233,1.37233,0,0,1,39,18.58578v9.44367a1.37233,1.37233,0,0,1-1.37233,1.37233H35.33139"/><path class="cls-1" d="M35.46839,13.74078H29.65256a1.10945,1.10945,0,0,0-1.10945,1.10945V19.2506A1.10945,1.10945,0,0,0,29.65256,20.36H39"/><circle class="cls-1" cx="9.66356" cy="29.40179" r="4.29465"/><circle class="cls-1" cx="31.03624" cy="29.40179" r="4.29465"/><text class="cls-2" transform="translate(5.02402 20.90017)">免</text></svg>