<svg id="图层_1" data-name="图层 1" xmlns="http://www.w3.org/2000/svg" viewBox="0 0 40 40"><defs><style>.cls-1,.cls-2{fill:none;stroke:#666;stroke-width:1.5px;}.cls-1{stroke-linecap:round;stroke-linejoin:round;}.cls-2{stroke-miterlimit:10;}</style></defs><title>商城ICON</title><path class="cls-1" d="M25.68028,6.00926A12.51821,12.51821,0,0,0,7.5,17.1641c0,.17128,0,.35982.01705.58259v.13717c.01722.17128.01722.34256.03431.5311v.03427c.874,8.7731,10.3496,15.45581,12.52575,16.89518,2.21046-1.47364,11.90888-8.43054,12.40566-17.46056v-.12008c.01722-.22265.01722-.41115.01722-.59969a12.38922,12.38922,0,0,0-3.941-9.11582"/><path class="cls-2" d="M20.02575,11.97225a5.19187,5.19187,0,1,0,5.19189,5.19185,5.19949,5.19949,0,0,0-5.19189-5.19185Zm0,0"/></svg>