<svg id="图层_1" data-name="图层 1" xmlns="http://www.w3.org/2000/svg" viewBox="0 0 40 40"><defs><style>.cls-1{fill:none;stroke:#595757;stroke-miterlimit:10;stroke-width:1.5px;}</style></defs><title>商城ICON</title><circle class="cls-1" cx="19.69445" cy="15.81026" r="7.36025"/><circle class="cls-1" cx="19.69445" cy="15.81026" r="12.31886"/><path class="cls-1" d="M9.83793,26.95139,6.68047,32.93075a.58962.58962,0,0,0,.70182.83666l3.03725-.97626a.58962.58962,0,0,1,.74658.39664l.84241,2.89579a.58962.58962,0,0,0,1.09094.1041l3.06747-5.98886"/><path class="cls-1" d="M30.16207,26.95139l3.15746,5.97936a.58962.58962,0,0,1-.70182.83666l-3.03725-.97626a.58962.58962,0,0,0-.74658.39664l-.84241,2.89579a.58962.58962,0,0,1-1.09094.1041l-3.06747-5.98886"/></svg>