<svg id="图层_1" data-name="图层 1" xmlns="http://www.w3.org/2000/svg" viewBox="0 0 40 40"><defs><style>.cls-1{fill:none;stroke:#595757;stroke-linecap:round;stroke-width:1.5px;}.cls-1,.cls-2{stroke-miterlimit:10;}.cls-2{fill:#585858;stroke:#fff;stroke-width:0.25px;}</style></defs><title>商城ICON</title><path class="cls-1" d="M4.82975,14.686a16.5232,16.5232,0,1,1-.43189,9.12319"/><line class="cls-1" x1="3" y1="9.95843" x2="4.54062" y2="15.35061"/><line class="cls-1" x1="9.70976" y1="13.17611" x2="4.544" y2="15.35876"/><path class="cls-2" d="M26.14611,21.68233a1.00871,1.00871,0,0,1,0,2.01742H21.70777v4.16948a1.00884,1.00884,0,0,1-2.01768,0V23.76694H15.25174a1.00868,1.00868,0,0,1,0-2.01736h4.43834V20.06821H15.25174a1.00871,1.00871,0,0,1,0-2.01742h4.30391l-4.50553-5.17816a1.054,1.054,0,0,1,.13443-1.47949,1.0367,1.0367,0,0,1,1.41224.06725L20.699,16.1678l4.102-4.70741a.99983.99983,0,0,1,1.47975,1.345L21.775,17.9836h4.30391a1.00871,1.00871,0,1,1,0,2.01742H21.64052v1.68131Z"/></svg>