<svg id="图层_1" data-name="图层 1" xmlns="http://www.w3.org/2000/svg" viewBox="0 0 40 40"><defs><style>.cls-1{fill:none;stroke:#666;stroke-miterlimit:10;stroke-width:1.5px;}</style></defs><title>商城ICON</title><path class="cls-1" d="M28.58949,20.94222l.0488-.0119a5.885,5.885,0,0,0,2.78719-1.73642,7.39743,7.39743,0,0,0,1.89961-5.2661,7.75048,7.75048,0,0,0-2.31381-5.87849,8.70476,8.70476,0,0,0-6.21335-2.22915H6V9.34289H21.94916c3.2424,0,3.8598,1.86239,3.85171,4.02576a3.96207,3.96207,0,0,1-3.997,3.88188L6,17.25049V34.17984h7.426l.01005-12.83955h6.00348l5.568,11.5789h0a2.55719,2.55719,0,0,0,2.20413,1.26065h6.56a.228.228,0,0,0,.20508-.32765L27.786,21.11156Z"/></svg>